<svg width="66" height="9" viewBox="0 0 66 9" fill="none" xmlns="http://www.w3.org/2000/svg">
<path fill-rule="evenodd" clip-rule="evenodd" d="M6.98467 7.30326H3.84008L3.28441 8.80326H0.447144L4.06466 0.196742H6.80737L10.4249 8.80326H7.54034L6.98467 7.30326ZM6.2163 5.21314L5.41235 3.0492L4.60845 5.21314H6.2163ZM12.6711 8.42829C11.9696 8.04714 11.4199 7.51434 11.0219 6.82994C10.6239 6.14549 10.4249 5.36886 10.4249 4.5C10.4249 3.63114 10.6239 2.85451 11.0219 2.17006C11.4199 1.48566 11.9696 0.952857 12.6711 0.571714C13.3725 0.190571 14.1606 0 15.0355 0C15.8394 0 16.5565 0.147542 17.1871 0.442628C17.8176 0.737714 18.3377 1.16394 18.7476 1.72131L16.9861 3.35657C16.4738 2.6844 15.8709 2.34834 15.1773 2.34834C14.5941 2.34834 14.1252 2.54303 13.7705 2.9324C13.4159 3.32171 13.2385 3.84429 13.2385 4.5C13.2385 5.15571 13.4159 5.67829 13.7705 6.0676C14.1252 6.45697 14.5941 6.65166 15.1773 6.65166C15.8709 6.65166 16.4738 6.3156 16.9861 5.64343L18.7476 7.27869C18.3377 7.83606 17.8176 8.26229 17.1871 8.55737C16.5565 8.85246 15.8394 9 15.0355 9C14.1606 9 13.3725 8.80943 12.6711 8.42829ZM25.0723 7.30326H21.928L21.3719 8.80326H18.5348L22.1522 0.196742H24.8952L28.5124 8.80326H25.6278L25.0723 7.30326ZM24.3037 5.21314L23.5001 3.0492L22.696 5.21314H24.3037ZM28.9619 0.196742H33.0402C33.9625 0.196742 34.776 0.370914 35.4814 0.719257C36.1867 1.0676 36.7344 1.56554 37.1246 2.21314C37.5147 2.86069 37.71 3.62297 37.71 4.5C37.71 5.37703 37.5147 6.13931 37.1246 6.78686C36.7344 7.43446 36.1867 7.9324 35.4814 8.28074C34.776 8.62909 33.9625 8.80326 33.0402 8.80326H28.9619V0.196742ZM32.922 6.54097C33.5213 6.54097 33.9997 6.36269 34.3587 6.00617C34.7172 5.6496 34.8965 5.14754 34.8965 4.5C34.8965 3.85246 34.7172 3.3504 34.3587 2.99383C33.9997 2.63731 33.5213 2.45903 32.922 2.45903H31.7516V6.54097H32.922ZM45.6069 6.61474V8.80326H38.7267V0.196742H45.4532V2.38526H41.4692V3.39343H44.9687V5.4836H41.4692V6.61474H45.6069ZM54.0715 8.80326L54.0482 4.88114L52.2513 8.02869H51.0215L49.2246 5.0164V8.80326H46.6829V0.196742H48.9765L51.6719 4.7828L54.2962 0.196742H56.5898L56.6131 8.80326H54.0715ZM62.879 5.68034V8.80326H60.0893V5.64343L56.9683 0.196742H59.9117L61.6021 3.17211L63.3047 0.196742H66L62.879 5.68034Z" fill="white"/>
</svg>
