<svg width="66" height="7" viewBox="0 0 66 7" fill="none" xmlns="http://www.w3.org/2000/svg">
<path fill-rule="evenodd" clip-rule="evenodd" d="M4.93915 0.688229C5.42134 1.10766 5.66246 1.68446 5.66246 2.41851C5.66246 3.15263 5.42134 3.72777 4.93915 4.14394C4.45695 4.56017 3.7908 4.76829 2.94057 4.76829H1.15142V6.94103H0.447144V0.0589714H2.94057C3.7908 0.0589714 4.45695 0.268743 4.93915 0.688229ZM4.43476 3.68189C4.78371 3.38366 4.95818 2.96257 4.95818 2.41851C4.95818 1.86143 4.78371 1.43377 4.43476 1.13554C4.08581 0.837314 3.58142 0.688229 2.92153 0.688229H1.15142V4.1292H2.92153C3.58142 4.1292 4.08581 3.98011 4.43476 3.68189ZM8.39856 6.54286C7.86243 6.23806 7.44372 5.82023 7.14233 5.28931C6.84094 4.7584 6.69028 4.162 6.69028 3.5C6.69028 2.838 6.84094 2.2416 7.14233 1.71069C7.44372 1.17977 7.86243 0.761943 8.39856 0.457143C8.9347 0.1524 9.53265 0 10.1925 0C10.8524 0 11.4472 0.150743 11.977 0.452229C12.5067 0.753771 12.9239 1.1716 13.2284 1.70577C13.533 2.23994 13.6852 2.838 13.6852 3.5C13.6852 4.162 13.533 4.76006 13.2284 5.29423C12.9239 5.8284 12.5067 6.24623 11.977 6.54777C11.4472 6.84926 10.8524 7 10.1925 7C9.53265 7 8.9347 6.8476 8.39856 6.54286ZM11.6201 5.98246C12.0452 5.73663 12.3782 5.39583 12.6194 4.96C12.8604 4.52411 12.981 4.03743 12.981 3.5C12.981 2.96257 12.8604 2.47589 12.6194 2.04C12.3782 1.60417 12.0452 1.26337 11.6201 1.01754C11.195 0.771771 10.7191 0.648857 10.1925 0.648857C9.66589 0.648857 9.18847 0.771771 8.76022 1.01754C8.33197 1.26337 7.99567 1.60417 7.75144 2.04C7.50716 2.47589 7.38501 2.96257 7.38501 3.5C7.38501 4.03743 7.50716 4.52411 7.75144 4.96C7.99567 5.39583 8.33197 5.73663 8.76022 5.98246C9.18847 6.22823 9.66589 6.35114 10.1925 6.35114C10.7191 6.35114 11.195 6.22823 11.6201 5.98246ZM24.211 0.0589714L21.9651 6.94103H21.2226L19.2717 1.07166L17.3112 6.94103H16.5784L14.3324 0.0589714H15.0557L16.9781 5.97754L18.9672 0.0589714H19.6238L21.5844 6.00703L23.5351 0.0589714H24.211ZM30.2066 6.31177V6.94103H25.4957V0.0589714H30.064V0.688229H26.1999V3.13623H29.645V3.7556H26.1999V6.31177H30.2066ZM36.412 6.94103L34.8893 4.72891C34.7178 4.74857 34.5402 4.7584 34.3559 4.7584H32.5668V6.94103H31.8626V0.0589714H34.3559C35.2061 0.0589714 35.8726 0.268743 36.3549 0.688229C36.8371 1.10766 37.078 1.68446 37.078 2.41851C37.078 2.956 36.9464 3.40989 36.6828 3.78017C36.4198 4.15051 36.0435 4.4176 35.5552 4.58148L37.1828 6.94103H36.412ZM35.8504 3.6868C36.1995 3.38531 36.3737 2.96257 36.3737 2.41851C36.3737 1.86143 36.1995 1.43377 35.8504 1.13554C35.5014 0.837314 34.9969 0.688229 34.3371 0.688229H32.5668V4.13903H34.3371C34.9969 4.13903 35.5014 3.98829 35.8504 3.6868ZM39.8521 6.54777C39.3222 6.24623 38.9071 5.8284 38.6052 5.29423C38.3038 4.76006 38.1534 4.162 38.1534 3.5C38.1534 2.838 38.3038 2.23994 38.6052 1.70577C38.9071 1.1716 39.3238 0.753771 39.8571 0.452229C40.3899 0.150743 40.9864 0 41.6463 0C42.1407 0 42.598 0.0852 43.0164 0.2556C43.4354 0.426057 43.7906 0.675086 44.0825 1.0028L43.6352 1.46491C43.1147 0.920857 42.4582 0.648857 41.6651 0.648857C41.1385 0.648857 40.6596 0.773428 40.2278 1.02246C39.7966 1.27154 39.4587 1.61234 39.2145 2.04497C38.9703 2.47754 38.8482 2.96257 38.8482 3.5C38.8482 4.03743 38.9703 4.52246 39.2145 4.95503C39.4587 5.38766 39.7966 5.72846 40.2278 5.97754C40.6596 6.22657 41.1385 6.35114 41.6651 6.35114C42.4648 6.35114 43.1213 6.07583 43.6352 5.52526L44.0825 5.98737C43.7906 6.31509 43.4337 6.56577 43.012 6.73949C42.5897 6.91314 42.1313 7 41.6368 7C40.977 7 40.3821 6.84926 39.8521 6.54777ZM46.5614 6.54286C46.0253 6.23806 45.6069 5.82023 45.3056 5.28931C45.0042 4.7584 44.8533 4.162 44.8533 3.5C44.8533 2.838 45.0042 2.2416 45.3056 1.71069C45.6069 1.17977 46.0253 0.761943 46.5614 0.457143C47.0975 0.1524 47.6957 0 48.3556 0C49.0154 0 49.6103 0.150743 50.1403 0.452229C50.6697 0.753771 51.087 1.1716 51.3917 1.70577C51.6958 2.23994 51.8484 2.838 51.8484 3.5C51.8484 4.162 51.6958 4.76006 51.3917 5.29423C51.087 5.8284 50.6697 6.24623 50.1403 6.54777C49.6103 6.84926 49.0154 7 48.3556 7C47.6957 7 47.0975 6.8476 46.5614 6.54286ZM49.7829 5.98246C50.208 5.73663 50.5415 5.39583 50.7823 4.96C51.0237 4.52411 51.1441 4.03743 51.1441 3.5C51.1441 2.96257 51.0237 2.47589 50.7823 2.04C50.5415 1.60417 50.208 1.26337 49.7829 1.01754C49.3578 0.771771 48.8822 0.648857 48.3556 0.648857C47.8289 0.648857 47.3517 0.771771 46.9232 1.01754C46.4948 1.26337 46.1585 1.60417 45.9143 2.04C45.6702 2.47589 45.5481 2.96257 45.5481 3.5C45.5481 4.03743 45.6702 4.52411 45.9143 4.96C46.1585 5.39583 46.4948 5.73663 46.9232 5.98246C47.3517 6.22823 47.8289 6.35114 48.3556 6.35114C48.8822 6.35114 49.3578 6.22823 49.7829 5.98246ZM53.4283 0.0589714H56.1403C56.8445 0.0589714 57.4666 0.2048 58.006 0.496514C58.5449 0.788172 58.9639 1.19451 59.2619 1.7156C59.5604 2.23669 59.7092 2.83143 59.7092 3.5C59.7092 4.16851 59.5604 4.76331 59.2619 5.2844C58.9639 5.80549 58.5449 6.21183 58.006 6.50349C57.4666 6.7952 56.8445 6.94103 56.1403 6.94103H53.4283V0.0589714ZM56.1026 6.31177C56.6858 6.31177 57.1969 6.19217 57.6348 5.95297C58.0726 5.71371 58.4117 5.38274 58.6531 4.96C58.894 4.5372 59.0144 4.05057 59.0144 3.5C59.0144 2.94943 58.894 2.4628 58.6531 2.04C58.4117 1.61726 58.0726 1.28629 57.6348 1.04703C57.1969 0.807829 56.6858 0.688229 56.1026 0.688229H54.1325V6.31177H56.1026ZM66 6.31177V6.94103H61.2891V0.0589714H65.8574V0.688229H61.9933V3.13623H65.4384V3.7556H61.9933V6.31177H66Z" fill="white"/>
</svg>
